<?xml version="1.0" standalone="no"?>
<!DOCTYPE svg PUBLIC "-//W3C//DTD SVG 20010904//EN"
 "http://www.w3.org/TR/2001/REC-SVG-20010904/DTD/svg10.dtd">
<svg version="1.0" xmlns="http://www.w3.org/2000/svg"
 width="1536.000000pt" height="1024.000000pt" viewBox="0 0 1536.000000 1024.000000"
 preserveAspectRatio="xMidYMid meet">

<g transform="translate(0.000000,1024.000000) scale(0.100000,-0.100000)"
fill="#000000" stroke="none">
<path d="M13462 7129 c-115 -15 -223 -96 -276 -208 -26 -57 -30 -77 -30 -146
0 -109 28 -178 103 -254 76 -78 143 -104 266 -105 81 -1 97 2 155 30 79 38
140 97 177 172 25 51 28 67 28 162 0 97 -2 109 -29 158 -75 135 -232 211 -394
191z m143 -63 c28 -7 61 -19 74 -25 44 -24 103 -85 129 -135 23 -43 27 -63 26
-131 0 -95 -25 -154 -95 -223 -62 -61 -132 -85 -234 -80 -129 7 -220 67 -270
179 -24 55 -27 71 -23 138 5 88 22 127 82 189 85 89 193 120 311 88z"/>
<path d="M13502 6988 c-5 -7 -20 -42 -32 -78 -33 -97 -28 -95 -95 -50 -54 35
-61 38 -72 23 -7 -9 -13 -20 -13 -24 0 -4 29 -26 65 -49 36 -23 65 -45 65 -47
0 -3 -18 -43 -39 -89 -34 -72 -37 -84 -22 -84 10 0 26 10 37 21 10 12 41 39
67 61 l48 40 40 -28 c22 -15 55 -45 73 -66 22 -28 37 -37 49 -32 22 8 21 22
-4 64 -12 19 -30 54 -40 77 l-18 42 65 41 c62 39 79 65 50 76 -7 3 -36 -9 -63
-25 -28 -17 -55 -31 -60 -31 -6 0 -24 37 -39 82 -29 83 -42 99 -62 76z m38
-140 c11 -45 11 -53 -4 -64 -16 -11 -56 -9 -56 4 0 16 35 112 41 112 4 0 13
-23 19 -52z"/>
<path d="M3002 6633 c-89 -219 -236 -582 -327 -808 -92 -225 -249 -615 -350
-865 -101 -250 -211 -522 -245 -605 -99 -240 -270 -664 -270 -670 0 -3 176 -4
391 -3 l391 3 123 315 122 315 708 0 708 0 121 -315 121 -315 414 -3 c329 -2
412 0 408 10 -217 528 -298 725 -462 1118 -108 261 -251 606 -317 765 -66 160
-164 396 -217 525 -54 129 -162 391 -242 583 l-144 347 -386 0 -386 0 -161
-397z m563 -405 c26 -120 217 -653 403 -1125 l60 -153 -479 0 c-263 0 -479 2
-479 5 0 2 42 114 94 247 200 515 227 590 303 820 43 131 81 237 85 238 3 0
10 -15 13 -32z"/>
<path d="M6401 7008 c-5 -13 -90 -221 -189 -463 -99 -242 -311 -759 -470
-1150 -160 -390 -305 -744 -323 -786 l-32 -76 41 -99 c23 -54 91 -216 152
-359 61 -143 124 -290 138 -327 l27 -68 56 0 57 0 57 147 c32 82 88 225 125
318 l68 170 717 0 716 0 127 -317 127 -318 413 0 c226 0 412 2 412 4 0 2 -86
208 -191 457 -105 250 -242 576 -304 724 -62 149 -175 416 -250 595 -76 179
-149 352 -162 385 -14 33 -130 309 -259 613 -129 303 -234 557 -234 562 0 6
-143 10 -405 10 l-405 0 -9 -22z m458 -924 c64 -188 226 -608 355 -926 l84
-208 -490 0 c-463 0 -490 1 -483 18 93 216 398 1062 461 1281 3 8 7 12 10 9 2
-3 31 -81 63 -174z"/>
<path d="M8920 5355 l0 -1675 678 0 c402 0 724 4 792 11 521 48 895 248 1162
621 189 263 288 617 288 1028 0 512 -142 929 -415 1219 -215 227 -470 364
-800 430 -188 37 -278 41 -1000 41 l-705 0 0 -1675z m1460 1001 c194 -37 311
-95 430 -215 146 -148 217 -305 251 -558 18 -137 6 -467 -20 -573 -51 -201
-113 -320 -228 -434 -189 -190 -403 -245 -950 -246 l-223 0 0 1026 0 1026 328
-5 c243 -3 349 -9 412 -21z"/>
<path d="M12160 5355 l0 -1675 365 0 365 0 0 1675 0 1675 -365 0 -365 0 0
-1675z"/>
</g>
</svg>
